<?xml version="1.0" encoding="UTF-8" standalone="no"?>
<!-- Generator: Adobe Illustrator 16.0.0, SVG Export Plug-In . SVG Version: 6.00 Build 0)  -->

<svg
   xmlns:dc="http://purl.org/dc/elements/1.1/"
   xmlns:cc="http://creativecommons.org/ns#"
   xmlns:rdf="http://www.w3.org/1999/02/22-rdf-syntax-ns#"
   xmlns:svg="http://www.w3.org/2000/svg"
   xmlns="http://www.w3.org/2000/svg"
   xmlns:sodipodi="http://sodipodi.sourceforge.net/DTD/sodipodi-0.dtd"
   xmlns:inkscape="http://www.inkscape.org/namespaces/inkscape"
   version="1.1"
   id="Capa_1"
   x="0px"
   y="0px"
   width="310.42px"
   height="310.42px"
   viewBox="0 0 310.42 310.42"
   style="enable-background:new 0 0 310.42 310.42;"
   xml:space="preserve"
   sodipodi:docname="magnifier-with-an-eye-white.svg"
   inkscape:version="0.92.3 (2405546, 2018-03-11)"><metadata
   id="metadata3809"><rdf:RDF><cc:Work
       rdf:about=""><dc:format>image/svg+xml</dc:format><dc:type
         rdf:resource="http://purl.org/dc/dcmitype/StillImage" /><dc:title></dc:title></cc:Work></rdf:RDF></metadata><defs
   id="defs3807" /><sodipodi:namedview
   pagecolor="#ffffff"
   bordercolor="#666666"
   borderopacity="1"
   objecttolerance="10"
   gridtolerance="10"
   guidetolerance="10"
   inkscape:pageopacity="0"
   inkscape:pageshadow="2"
   inkscape:window-width="1920"
   inkscape:window-height="986"
   id="namedview3805"
   showgrid="false"
   inkscape:zoom="2.4579601"
   inkscape:cx="155.21001"
   inkscape:cy="155.21001"
   inkscape:window-x="-11"
   inkscape:window-y="-11"
   inkscape:window-maximized="1"
   inkscape:current-layer="Capa_1" />
<g
   id="g3772">
	<g
   id="g3770">
		<path
   d="M273.587,214.965c49.11-49.111,49.109-129.021,0-178.132c-49.111-49.111-129.021-49.111-178.131,0    C53.792,78.497,47.482,140.462,76.51,188.85c0,0,2.085,3.496-0.731,6.312c-16.064,16.064-64.262,64.263-64.262,64.263    c-12.791,12.79-15.837,30.675-4.494,42.02l1.953,1.951c11.344,11.345,29.23,8.301,42.02-4.49c0,0,48.096-48.097,64.129-64.128    c2.95-2.951,6.447-0.866,6.447-0.866C169.958,262.938,231.923,256.629,273.587,214.965z M118.712,191.71    c-36.288-36.288-36.287-95.332,0-131.62c36.288-36.287,95.332-36.288,131.619,0c36.288,36.287,36.288,95.332,0,131.62    C214.043,227.997,154.999,227.997,118.712,191.71z"
   id="path3762" />
		<g
   id="g3768">
			<path
   d="M184.908,82.43c-38.02,0-68.841,37.92-68.841,44.115c0,6.012,30.82,44.114,68.841,44.114     c38.02,0,68.841-37.93,68.841-44.114C253.749,120.371,222.929,82.43,184.908,82.43z M184.908,157.941     c-17.341,0-31.397-14.058-31.397-31.397s14.057-31.397,31.397-31.397c17.34,0,31.396,14.057,31.396,31.397     S202.248,157.941,184.908,157.941z"
   id="path3764" />
			<circle
   cx="184.908"
   cy="126.545"
   r="15.994"
   id="circle3766" />
		</g>
	</g>
</g>
<g
   id="g3774">
</g>
<g
   id="g3776">
</g>
<g
   id="g3778">
</g>
<g
   id="g3780">
</g>
<g
   id="g3782">
</g>
<g
   id="g3784">
</g>
<g
   id="g3786">
</g>
<g
   id="g3788">
</g>
<g
   id="g3790">
</g>
<g
   id="g3792">
</g>
<g
   id="g3794">
</g>
<g
   id="g3796">
</g>
<g
   id="g3798">
</g>
<g
   id="g3800">
</g>
<g
   id="g3802">
</g>
<path
   style="fill:#ffffff;stroke-width:0.40684143"
   d="m 19.813178,309.41148 c -7.055763,-1.8567 -14.8619776,-8.8087 -17.780352,-15.8347 -3.5017084,-8.43037 -1.61139955,-19.17175 5.042498,-28.65318 1.1299712,-1.61015 15.355618,-16.18613 35.764107,-36.64487 19.811408,-19.86019 34.072872,-34.46535 34.333324,-35.16075 0.616511,-1.64606 0.190703,-3.1907 -1.863468,-6.75986 -8.017087,-13.92981 -13.642476,-30.97374 -15.705386,-47.58451 -0.691174,-5.5654 -0.691174,-22.50665 0,-28.07206 C 62.696185,85.802126 72.724542,63.116131 89.008472,44.18298 121.62899,6.2554429 172.69974,-8.7047362 220.89583,5.5491524 c 10.66171,3.1531806 23.22781,9.0434146 32.74451,15.3486616 46.35868,30.714774 67.02671,87.346456 51.37679,140.775616 -11.90283,40.63652 -44.62199,73.25675 -85.31884,85.0609 -10.6483,3.08854 -18.708,4.3072 -30.50001,4.61169 -9.62784,0.24862 -16.02648,-0.15888 -24.101,-1.53488 -14.68205,-2.50199 -26.8909,-6.94804 -42.35322,-15.42359 -2.36202,-1.29472 -4.64909,-1.57918 -6.23108,-0.77499 -0.48875,0.24845 -16.26725,15.78146 -35.063325,34.51779 -35.439009,35.32636 -36.334268,36.14796 -42.566507,39.06422 -5.782885,2.70599 -13.709575,3.62748 -19.06997,2.21691 z M 196.47008,218.29045 c 24.44086,-3.35889 45.49844,-15.13778 60.67932,-33.94196 22.57595,-27.96425 26.92702,-67.17184 11.03996,-99.481367 C 263.36092,75.047505 258.17491,67.856981 250.1226,59.817131 235.71251,45.429342 218.12381,36.673948 197.39946,33.572333 c -6.59839,-0.987517 -18.96399,-1.002265 -25.42759,-0.03032 -32.49748,4.886696 -58.84376,24.43687 -72.200831,53.576395 -9.797364,21.373732 -11.043845,46.481082 -3.422887,68.945962 5.401798,15.92329 15.434478,30.53229 28.403948,41.36016 13.17992,11.00357 30.27045,18.54478 47.21977,20.83575 5.9404,0.80294 18.76028,0.81872 24.49821,0.0302 z"
   id="path3811"
   inkscape:connector-curvature="0" /><path
   style="fill:#ffffff;stroke-width:0.40684143"
   d="m 179.70186,170.23648 c -16.49131,-1.6277 -34.32063,-10.63003 -49.31698,-24.90101 -6.32053,-6.0148 -13.29729,-14.99592 -13.94694,-17.95377 -0.64017,-2.91468 4.06831,-9.67678 12.76385,-18.33087 21.16331,-21.062394 46.01766,-30.074063 68.80794,-24.948314 8.05964,1.812691 19.02803,6.649333 26.64811,11.750799 13.92489,9.322395 28.64626,25.103415 28.67495,30.738985 0.0144,2.82881 -5.00682,9.85511 -12.19787,17.06876 -18.53694,18.59518 -41.52638,28.54022 -61.43306,26.57542 z m 12.61209,-13.03474 c 14.066,-3.3131 24.00364,-15.94707 24.00364,-30.51643 0,-9.16949 -3.38297,-17.08672 -9.9099,-23.19234 -15.59803,-14.591195 -41.13571,-9.631246 -50.07953,9.7265 -2.11262,4.57249 -2.81175,7.89162 -2.81175,13.3489 0,5.81934 0.7559,9.08914 3.2918,14.23945 1.6259,3.30213 2.46869,4.42799 5.78717,7.73096 4.37776,4.35728 7.01909,6.07332 11.97995,7.78326 5.75049,1.98211 11.78722,2.28148 17.73862,0.8797 z"
   id="path3819"
   inkscape:connector-curvature="0" /><path
   style="fill:#ffffff;stroke-width:0.40684143"
   d="m 180.93225,141.80802 c -4.54201,-1.27159 -8.13155,-4.30934 -10.30589,-8.72163 -1.18519,-2.40506 -1.29896,-2.97517 -1.29896,-6.50947 0,-3.48325 0.12634,-4.14011 1.25381,-6.51918 3.07155,-6.48119 9.94864,-10.2159 16.68637,-9.06177 6.84287,1.17213 11.92884,6.21403 13.1694,13.05527 0.8814,4.86063 -1.0517,10.53474 -4.75066,13.94432 -3.92138,3.6146 -9.92218,5.16521 -14.75407,3.81246 z"
   id="path3821"
   inkscape:connector-curvature="0" /><rect
   style="fill:#008000"
   id="rect3823"
   width="144.42871"
   height="92.353004"
   x="112.69508"
   y="80.554604" /></svg>